<?xml version='1.0' encoding='utf-8'?>
<svg xmlns="http://www.w3.org/2000/svg" width="595.28px" height="841.89px" enable-background="new 0 0 595.275 841.89" version="1.1" viewBox="0 0 595.275 841.89">
	<path d="m549.17 639.1l-1.859-0.982c-4.063-21.48-17.973-17.523-17.973-17.523l-10.684-1.168-6.578-4.774-11.559-3.151-3.576-4.672-4.924-3.745-2.484-5.746-7.309-7.393-8.66-7.695-2.299-7.027-3.992-5.332-1.48-7.313 3.283-6.625 0.498-2.251 2.998 1.807 5.289-3.815-0.254-4.774c-3.615-7.04-9.635-8.387-9.635-8.387l-5.188-3.393 7.361-0.872 4.477-7.774 3.059-1.865 0.637-8.729-3.348-8.074 0.631-0.127c-0.969-2.323-2.215-5.11-3.584-8.167l-1.26-4.671-3.93-8.148-0.625-0.537c-3.65-8.802-6.979-18.112-7.912-25.581-0.693-5.524-2.98-19.089-4.699-26.43-3.592-15.358-6.379-24.366-8.811-30.372 2.447-7.209 1.99-16.3-1.916-24.96-5.451-12.078-15.967-19.657-25.875-19.726 3.154-2.374 4.439-3.121 6.461-8.257 3.555-9.03 12.52-7.271 14.84-17.622 0.59-2.621 1.926-4.867 3.49-6.811 0.178-0.103 0.357-0.214 0.529-0.306 1.07-0.568 2.424-2.255 3.617-3.991 0.953-2.046 1.639-4.282 1.404-5.506-0.08-0.432 2.51-2.291 2.408-2.859 0.625-1.411 1.246-1.305 1.25-2.508 6e-3 -2.401 1.646-4.555 2.01-6.853 0.365-2.3 1.199-3.888 1.002-5.579-0.197-1.688-0.398-1.646-1.004-5.277-0.604-3.63 0.566-6.756 0.555-8.393-0.021-1.638 0.145-2.551 0.422-4.204 0.271-1.651-0.27-6.511-0.215-9.089 0.047-2.576-1.365-6.053-2.918-7.358-1.555-1.299-5.514-0.884-6.676-0.832-1.176 0.056-4.295-1.789-4.463-2.893-0.172-1.101 1.148-12.544 1.297-13.083 0.15-0.531 0.82-10.715 0.949-11.158 0.125-0.446 0.027-3.833-0.764-5.119-0.785-1.276-1.717-1.057-3.357-1.715-1.637-0.658-3.576 0.43-4.646 2.526-1.076 2.097-0.912 2.529-1.721 4.032-0.809 1.498-1.271 4.152-1.848 5.522-0.584 1.375-2.012 3.374-3.451 7.094-1.441 3.725-2.428 8.917-2.602 13.958-0.176 5.043-1.107 7.655-2.078 12.092-0.965 4.433-3.908 7.303-4.521 9.148-0.619 1.839-1.387 8.719-2.785 8.348-5.348-1.42-1.877 2.821-3.707 5.564-1.148 1.718-1.143 3.178-1.01 4.561-0.594-0.05-3.916-0.361-6.314-1.041-2.639-0.746-14.303 9.441-16.883 4.826-2.578-4.616 1.367-1.169-9.268-9.357-10.635-8.193-47.426-25.944-50.385-30.143-2.959-4.207-2.623-9.037-4.666-17.384-2.039-8.348-3.363-4.579-8.078-12.644-4.707-8.065-4.287-4.064-4.967-1.668-0.195 0.694-0.68 3.78-1.281 7.872l-83.64-25.779-7.851-27.779-5.855-2.422v-18.799h-6.908l-0.556 4.22c-0.917-1.37-1.398 1.925-2.36 0.786-5.306-3.975 3.814 5.146-6.056 15.074 0 0-8.519-1.462-12.653 3.015-3.616 3.916-0.432 4.888-11.148 6.928-10.377 1.977-20.775 3.597-27.418 12.656-3.085 4.208-18.982 11.75-27.896 31.082-9.411 13.309-9.953 29.841-14.042 42.601-7.711 24.106-2.89 31.818-7.711 41.455-3.82 7.647-18.029 59.564-22.925 90.338-0.57 3.579 1.309 2.619 0.874 6.121-0.295 2.379-2.272 1.697-1.312 8.09 2.889 19.284 7.95 28.1 11.805 33.887 7.652 0.436 2.611 17.378 8.22 19.949 1.406 0.645 2.686 1.576 3.877 2.676-0.381 6.154 0.31 13.646 6.721 25.43 6.53 10.521 34.688 48.533 47.845 55.879 11.159 6.226 23.178 17.509 32.606 22.033 14.27 6.849 18.846 12.92 18.846 12.92l3.735 4.831 1.745 8.173c0.25 0.728 0.237 1.11 0.237 1.11l-0.237-1.11c-1.072-3.128-6.56-17.05-39.307-30.331-6.727-2.727-9.856-9.079-15.275-12.337-8.556-5.144-14.428-7.237-17.783-8.724-4.955-2.196-13.415 2.579-15.804 0.915-0.067 0.316-5.708-0.816-5.955-0.686-5.006 2.623-15.084 4.888-9.116 10.311 13.265 12.057-9.18 38.907-3.798 58.047 1.903 6.769-2.662 17.002 13.133 16.657 0.365-7e-3 23.222 12.488 35.563 9.016 3.857 3.614 10.813 11.344 33.558 17.357 5.56 1.47 35.515 1.351 48.601 5.015 19.286 5.4 22.814 6.863 43.285 5.122 31.133-2.649 37.284-26.963 33.571-53.522-0.445-3.198-5.842-8.324-6.547-11.551-4.74-21.652-9.919-41.343-17.189-52.651-4.085-6.36-7.69-14.253-11.455-23.543-1.816-3.094-3.327-5.849-4.596-8.274-9.187-13.164-35.364-46.824-48.533-51.487 2.749 0.975-0.669-1.972 1.718-0.812 12.124 5.893 35.926 30.524 41.055 38.191l-0.297-4.465s3.774 10.769 10.907 11.177c16.211-1.946 34.279-15.678 43.013-24.423 9.646-9.639 17.959-16.69 25.074-20.248 3.857-1.924 24.49-28.785 24.49-35.535 3.6-0.567 9.217 1.666 8.193 4.098-5.461 12.975 0.623 30.94 4.498 37.912 1.965 3.538 6.029 10.426 9.939 19.004 0.117 7.645 2.996 10.418 2.996 10.418l2.979 5.11c0.678 2.208 1.285 4.451 1.801 6.717 3.695 1.757 6.547 3.035 7.246 3.035 4e-3 0 0.02-5e-3 0.023-5e-3l9.652 5.389 3.119-0.37-0.166 4.083 2.393 4.501-0.061 8.287 2.521 8.966c-1.205 10.865-0.145 21.292-0.145 21.292l-8.945 14.229-1.65 7.372-1.098 9.95 0.762 5.452 2.688 5.697-3.047 4.32 1.455 10.797 3.514 2.017 7.785 2.308 16.572 0.598 17.303 0.67 2.715-0.717 1.648-7.368 22.559 2.505 3.369 5.188c2.035 0.352 3.994 0.656 5.918 0.937l0.869-2.385 4.629 0.771 1.031 2.474c2.186 0.251 4.279 0.446 6.313 0.606l0.506-1.955 4.68 0.325 1.076 2.016c29.414 1.216 40.41-6.728 40.41-6.728l-0.751-8.001zm-82.895-95.671l0.08-3.404c3.137 0.205 4.73 3.961 5.895 6.708l0.496 1.171 0.105 0.049-0.027 0.128 0.051 0.125-0.102 0.083-0.689 2.88-1.152-0.555c-1.283-0.628-2.111-1.975-2.912-3.276-0.598-0.972-1.16-1.89-1.889-2.467l0.514-1.303c-0.129-0.034-0.235-0.129-0.37-0.139zm-170.84-151.38c5.541-11.818 11.154-26.595 13.103-33.229 0.363-1.264 4.076-5.527 6.297-6.265l-11.514-8.484 0.979-8.487s-0.576-5.451 3.211-3.291c6.492 3.708 43.16 33.966 48.232 36.177 0.197 0.087 0.418 0.181 0.623 0.269-19.127 5.177-41.285 13.042-60.931 23.31z" clip-rule="evenodd" fill-rule="evenodd"/>
	<path d="m579.86 206.82c-6e-3 0-6.479 0.163-16.018 0.408-0.947-0.97-2.352-1.55-3.896-1.47-1.438 0.076-2.695 0.715-3.541 1.659-24.406 0.62-60.23 1.538-68.656 1.755-0.01-0.132-0.018-0.238-0.031-0.313-0.203-1.319-1.209-2.73-1.209-2.73l-20.018-1.205s-0.061-3.72-0.088-4.253c-0.027-0.526 0.645-0.432 0.977-1.646 0.338-1.213-0.369-12.085-0.576-13.404-0.203-1.321-2.135-2.677-2.135-2.677s8e-3 -2.397 0.299-4.407c0.139-0.916 0.814-2.437 1.588-3.867 0.451 0.114 0.932 0.144 1.42 0.063l0.438-0.073c1.824-0.299 3.08-1.959 2.793-3.708-0.01-0.054-0.033-0.099-0.041-0.149 1.902-0.193 4.766-0.54 7.799-1.786 4.814-1.983 11.928-5.819 15.916-8.421 3.982-2.606 9.426-7.947 10.889-10.419 1.465-2.47 3.893-4.326 4.24-7.938 0.342-3.607-1.32-4.852-4.16-8.162-2.834-3.307-9.076-5.638-12.73-6.904-3.664-1.272-7.41-1.741-10.203-1.727-2.791 0.019-15.734 1.762-25.293 2.135-9.559 0.37-17.223-1.218-18.041-1.576-0.814-0.354-0.342-3.97-0.787-4.879-0.443-0.905-1.482-0.32-2.512 0.265-1.035 0.59-0.42 2.153-0.652 2.828-0.23 0.68-0.994 1.251-1.66 1.287-0.664 0.03-2.299-0.68-2.299-0.68s-0.586-1.029-0.641-2.092c-0.055-1.062-1.104-0.741-2.273-0.278-1.176 0.46-8.637 7.771-13.531 13.349-4.389 5.001-8.996 11.833-9.904 13.192-0.104 0.158-0.16 0.243-0.16 0.243s0.033 0.66 0.453 1.04c0.42 0.375 1.604 0.18 1.604 0.18s1.617 2.842 1.246 3.392c-0.373 0.555-0.582 2.626 0.076 3.99 0.412 0.844 2.293 1.363 3.77 0.863 1.264-0.427 1.537-1.146 1.537-1.146s12.021 8.547 20.162 11.575c8.145 3.027 10.266 2.916 10.266 2.916s0.945 2.741 2.195 3.739c1.25 1 3.178-0.167 3.178-0.167s1.443 2.052 2.023 2.954c0.58 0.903 0.512 4.762 0.512 4.762l-1.939 3.56s0.236 11.96 0.807 12.729c0.57 0.765 0.635 1.961 0.635 1.961l-0.107 2.929-1.201-0.068-0.604-1.298-26.872-2.446-11.027 0.184s-15.516-14.21-16.885-14.939c-1.367-0.724-2.57-0.795-2.57-0.795s-29.332-1.377-31.043-1.021c-1.709 0.358-2.563 1.868-2.563 1.868s-8.998 13.51-9.875 14.484c-0.883 0.979-1.916 1.566-1.916 1.566l-4.262 7.407-3.838 0.335-0.566 1.894s-1.982 0.233-2.361 0.653c-0.375 0.42-1.188 0.196-1.605-0.179-0.418-0.377-0.943-0.217-0.943-0.217l-1.406 1.005s-1.105-0.741-1.525-1.113c-0.416-0.378-1.176 0.457-1.176 0.457l0.801 12.595 0.924-0.182c0.92-0.179 2.182-1.446 2.182-1.446l0.336 1.313 1.313-0.335 1.146-0.993 0.461 1.172 2.816 0.514 0.436 3.173 6.383-0.074s2.553 0.531 5.199 0.258c2.646-0.27 5.902 0.889 7.369 3.469 1.465 2.583-0.098 5.728-1.383 9.12-1.285 3.39-3.645 9.101-6.615 13.248-2.977 4.149-7.268 13.552-8.504 17.876-1.234 4.322-1.977 7.818-1.977 7.818l-8.688 1.79-0.836-0.757-9.42 0.5s-1.18-4.727-1.334-5.119c-0.152-0.39-1.252-1-4.965-0.8-3.713 0.196-4.537 2.234-4.537 2.234l-0.131 5.06s-6.102 0.326-7.191-0.148c-1.086-0.479-2.389-2.404-5.493-5.833-3.109-3.426-5.54-4.095-7.313-4.933-1.771-0.835-4.822-0.674-4.822-0.674s-70.858 8.264-72.291 8.87c-1.43 0.606-4.501 2.899-6.498 5.399-1.997 2.498-3.888 9.514-3.306 17.994 0.58 8.483 4.782 15.045 7.297 17.308 2.514 2.26 5.056 2.524 5.056 2.524s69.841-7.407 75.431-9.834c5.59-2.423 7.837-5.2 9.437-7.684 1.598-2.477 5.814-8.284 5.814-8.284s2.527 0 3.303-0.444c0.773-0.434 1.275-0.993 1.275-0.993l2.766-0.545 0.463 1.17s2.779-0.276 3.566-0.453c0.787-0.172 1.803-1.161 1.803-1.161s12.299-1.314 13.197-1.894c0.9-0.578 0.211-1.073 0.211-1.073l9.883-1.72 0.582 0.901s8.607-0.722 14.002-1.803c5.396-1.081 17.504-3.583 17.504-3.583l0.543-2.293 2.787-0.148 0.492-0.659c4.871-0.512 15.215-1.578 20.699-2.01 10.645-0.833 18.055-4.439 22.654-11.026 4.686-6.707 3.449-12.686 2.455-17.492l-0.41-2.078c-0.781-4.348-3.051-13.965-3.889-17.48l0.123-4e-3 0.271-0.305 3.314-0.172 0.559-2.026 1.025-0.72 0.602-1.229 5.723 0.099 0.98-1.646 2.252-0.121 0.127 2.388 4.113-0.217-0.119-2.256 2.389-0.127 0.113 2.125 4.113-0.217-0.09-1.725 2.383-0.129 0.094 1.724 4.113-0.217-0.107-1.989 1.725-0.092s0 2.528-0.201 3.736c-0.207 1.208-0.996 8.962-0.338 18.775 0.646 9.809 2.018 25.694 2.438 26.074 0.418 0.377 10.357-0.28 11.158-0.325 0.791-0.042 0.5-0.557 0.977-1.651 0.473-1.083 0.393-20.233 0.279-24.887-0.109-4.645-1.832-19.584-2.02-20.636-0.189-1.055-0.6-1.302-0.6-1.302s0.928-0.048 1.473 0.188c0.543 0.238 0.748 1.557 0.748 1.557l7.441-0.127 4.416-4.489s6.523 0.055 7.268-0.917c0.232-0.292 0.396-1.481 0.514-3.026 7.58-0.189 44.117-1.104 68.91-1.723 0.932 1.133 2.455 1.829 4.143 1.739 1.574-0.083 2.936-0.84 3.768-1.937 9.275-0.233 15.543-0.389 15.564-0.392 1.137-0.019 1.924-2.196 1.961-4.86 0.048-3.754-2.069-4.77-2.069-4.77zm-176.18 28.907c0.143 1.387 0.266 2.744 0.309 3.579 0.014 0.266 0.018 0.458 0.014 0.599-0.25 1.166-3.34 8.405-6.252 14.89-0.715 0.917-1.826 1.968-2.35 2.086-0.906 0.186-6.955 0.2-12.305 0.101-1.252-0.095-4.986-0.769-6.143-2.652-0.844-1.38-1.475-2.26-2.051-2.776-0.557-1.566-0.27-3.875 8e-3 -6.487 0.289-2.687 1.916-4.159 2.775-6.129 0.857-1.968 3.289-4.445 3.803-4.791 0.516-0.349 1.072 0.049 1.072 0.049s0.477 7.023 1.195 10.507c0.715 3.487 2.309 5.911 2.945 5.878 0.643-0.038 1.252-0.607 1-1.338-0.252-0.734 0.227 1.65 0.066-1.334-0.156-2.979 0.111-3.958-0.033-4.694-0.146-0.743-0.842-5.829-0.789-6.794 0.059-0.964 0.727-2.494 0.727-2.494s13.748-0.406 14.863 0.389c0.591 0.426 0.944 0.984 1.146 1.411zm-44.448-34.387l5.23-10.53s0.127-0.885 1.25-1.206c1.121-0.323 25.494-0.118 25.494-0.118s1.504 0.269 2.24 0.932 6.813 6.213 6.813 6.213 0.979 1.875 0.49 2.693c-0.48 0.812-1.064 1.369-1.064 1.369l-1.391 0.25-1.027 2.069-1.578 0.049-0.098-1.89-3.408 0.179 0.094 1.816-2.885 0.095-0.098-1.847-3.408 0.182 0.096 1.774-2.887 0.092-0.096-1.803-3.41 0.18 0.092 1.734-3.148 0.099-0.1-1.843-3.406 0.182 0.096 1.771-3.152 0.1-0.09-1.703-3.406 0.177 0.086 1.634-2.977 0.099 0.016-1.408-4.488-0.373 0.12-0.968zm59.602 66.032c-3.914 5.6-10.152 8.551-19.635 9.296-5.432 0.422-15.537 1.465-20.527 1.989-0.039-0.123-0.066-0.217-0.08-0.257-0.129-0.422-0.873-0.384-2.162-0.528-1.291-0.147-0.795 1.108-1.689 0.41-0.891-0.701-0.57-0.722-1.102-0.694-0.533 0.031-1.262 0.389-2.322 0.552-1.059 0.165-2.633 0.675-4.072-0.315-1.441-0.994-0.764-2.315-0.563-4.567 0.201-2.249 2.119-4.381 2.412-4.93 0.287-0.55-0.52-3.708-0.34-6.388 0.18-2.677 1.619-3.716 3.369-4.98 0.869-0.637 1.529-0.802 1.967-0.812 2.307 3.689 8.143 4.18 8.805 4.218l0.078 0.01c2.672 0.047 11.514 0.179 13.16-0.184 2.09-0.458 4.059-2.982 4.436-3.479l0.188-0.321c2.994-6.664 6.574-14.89 6.639-16.258 0.051-1.102-0.326-4.729-0.545-6.751l5.553-4.284 0.672 0.606s-1.01 1.121-0.986 1.545c0.025 0.427 0.516 1.682 0.516 1.682l3.57-0.13c0.59 2.468 3.213 13.477 4.031 18.049l0.432 2.184c0.962 4.663 1.873 9.07-1.805 14.337z"/>
	<path d="m272.37 210.35c-2.896-12.045-7.714-10.602-13.5-9.636-5.784 0.958-6.75 9.636-7.231 15.425-0.479 5.782 10.126 17.353 13.5 14.939" fill="#FDD1B0"/>
	<path d="m256.94 222.4c5.303 8.674 7.711 7.23 6.75 2.408-0.969-4.817-4.825-0.963-6.75-2.408z" fill="#D1AE94"/>
	<path d="m208.68 449.4c3.834-1.001-0.939-3.506 2.907-3.291-19.829-4.534-46.354-1.486-69.338 4.39-22.991 5.874 13.394-0.253 18.46-0.562 2.666-0.162 9.109-0.754 16.244-0.967 4.568 0.285 12.584 0.477 14.41 0.673 3.412 0.37 16.098 1.312 23.287 3.825 7.186 2.523 11.331 0.01 16.214 1.064-5.77-2.21-13.725-3.962-22.184-5.132z" fill="#fff"/>
	<path d="m394.13 305.8c-16.387 2.899-28.924 14.949-35.674 24.587 10.605-9.157 13.494-10.606 20.248-12.528 6.752-1.932 9.645-10.129 15.426-12.059z" fill="#fff"/>
	<path d="m397.47 218.1s-1.01-0.948-4.59-0.517c-3.582 0.432-16.74 0.804-18.252 1.007-1.512 0.201-3.941 1.137-3.941 1.137s-2.756 0.526-3.125 0.484c-0.367-0.043 1.406 2.391 1.689 3.17 0.285 0.774 2.346 6.402 2.346 6.402s4.033-0.29 5.074-0.453c1.045-0.158 6.686-0.731 7.654-1.089 0.971-0.352 5.506-0.958 6.469-1.22 0.955-0.267 5.916-1.378 6.521-1.777 0.602-0.396 2.965-2.363 2.611-4.168-0.357-1.807-2.438-3.161-2.438-3.161l-0.018 0.185z" fill="#fff"/>
		<path d="m369.9 219.27s3.09 4.72 3.488 6.159c0.396 1.438 0.512 4.522 0.482 4.8-0.031 0.274-6.68 1.479-6.68 1.479s-1.305 0.035-0.949 0.169c0.359 0.132 1.418 0.623 2.855 1.068 1.439 0.437 5.215 0.772 6.684 0.939 1.471 0.166 3.758 0.515 3.758 0.515s0.777 2.972 0.848 4.84c0.066 1.869 0.031 5.489-0.135 6.124-0.166 0.63-1.637 1.3-1.637 1.3s3.107 3.795 3.484 4.581-0.207 6.768-0.566 7.469c-0.355 0.705-2.861 3.121-3.637 3.402-0.779 0.285-2.279 0.394-2.633 0.262-0.357-0.132 0.648 1.656 0.516 2.85-0.137 1.191-1.141 3.496-1.559 3.916-0.42 0.42-1.719 2.038-4.1 2.515-2.377 0.474-8.141 0.474-11.186 0.224-3.039-0.252-7.268 0.944-9.389 0.8-2.123-0.146-6.984 0.049-9.924 0.552-2.938 0.505-4.307-0.576-5.777 0.932-1.473 1.507-1.973 2.659-1.865 4.159 0.109 1.502-1.744 6.41-2.4 8.098-0.656 1.696-2.279 6.162-3.33 7.254-1.053 1.089-2.332 2.524-2.332 2.524s-3.732-1.536-4.953-3.069c-1.223-1.533-6.695-6.614-11.049-8.41-4.355-1.791-8.77-3.874-9.944-4.189-1.172-0.321-3.358 0.085-3.817 0.033-0.459-0.049-1.662-0.096-1.332-2.198 0.33-2.1 2.018-3.864 3.09-5.136 1.073-1.273 3.457-3.425 3.457-3.425s-0.917-0.943-0.917-1.776c3e-3 -0.84 1.024-1.651 1.024-1.651s1.148-2.755 3.104-5.232c1.953-2.475 3.633-4.984 5.07-6.216 1.441-1.234 2.559-2.873 3.129-2.994 0.574-0.125 2.217 0.158 2.217 0.158s4.975-3.72 7.389-6.142c2.41-2.426 8.756-6.731 10.158-8.434 1.4-1.701 5.967-4.256 9.627-7.004 3.658-2.748 8.695-5.346 10.746-6.23 2.055-0.882 5.924-2.212 8.133-2.8 2.2-0.588 10.852-2.216 10.852-2.216z" enable-background="new    "/>
		<path d="m358.81 220.6c-2.25 0.599-6.184 1.953-8.254 2.842-1.912 0.823-7.1 3.458-10.938 6.338l-4.4 3.053c-2.381 1.587-4.438 2.958-5.379 4.1-0.656 0.793-2.715 2.385-4.709 3.923l-3.773 4.598c-2.16 2.167-7.965 5.192-8.654 5.713-0.607-0.035-1.451 1.236-1.451 1.236-0.594 0.125-0.916-0.212-1.684 0.63l-2.107 2.106c-1.564 1.337-1.744 2.873-3.791 4.001l-1.264 2.526c-1.582 3.241-5.978 4.604-6.162 5.041-1.02 0.889 4.042 1.795 0.864 3.465-1.753 0.92-0.56-2.79 1.055-0.46-0.825 0.819-2.948 2.925-2.948 2.925l-0.339 0.398c-1.104 1.283-2.615 3.042-2.954 5.178-0.043 0.291-0.066 0.559-0.066 0.809 0 0.663 0.158 1.191 0.479 1.609l1.676 0.818c0.04 5e-3 1.102-0.047 1.102-0.047 0.74-0.068 1.979-0.184 2.618-9e-3 3e-3 2e-3 4.405 1.826 4.405 1.826l5.432 2.328c4.305 1.773 9.654 6.844 10.688 8.136 1.33 1.67 4.91 3.178 5.316 3.343l0.58 0.241 2.746-2.973c0.982-1.019 2.156-3.967 3.271-6.9l0.254-0.658c1.719-4.431 2.547-7.287 2.459-8.49-0.078-1.068 0.162-1.977 1.609-3.461 0.582-0.595 1.035-0.604 2.262-0.544l3.021-0.127c2.795-0.477 6.922 0.821 9.033 0.967l5.775-0.866c1.779-0.264 3.043-0.998 4.619-0.866 2.957 0.243 8.539-0.305 11.096-0.814 2.418-0.486 3.822-1.979 4.42-2.619 0.779-0.786 1.813-3.324 1.959-4.6 0 0-0.236-1.295-0.369-2.028-0.18-0.918 1.268-1.224 1.748-1.4 1.063-0.382 2.711-1.096 3.133-1.929 0.338-0.655 1.928-5.033 1.928-7.315 0-0.837-0.061-1.505-0.203-1.804-0.311-0.646-1.947-2.72-2.934-3.942 0.52-0.347 1.002-0.767 1.146-1.313 0.146-0.564 0.193-2.48 0.193-4.154 0-0.896-0.016-1.723-0.033-2.234-0.072-1.946-0.842-4.911-0.875-5.036l-0.154-0.587-4.375-0.599-0.975-0.104c-1.533-0.161-3.959-0.422-5.203-0.725 5.701-2.072 4.986-1.158 5.064-1.823 4e-3 -0.045 8e-3 -0.13 8e-3 -0.25 0-0.873-0.139-3.52-0.518-4.895-0.422-1.531-1.906-5.695-2.23-6.191h-0.48l-12.737 1.613zm-43.98 29.908c0.205-0.156 3.76-1.484 6.191-3.926l5.219-4.291c2.26-1.746 4.213-3.256 4.996-4.207 0.773-0.934 2.822-2.299 4.986-3.743l4.486-3.112c3.705-2.784 8.715-5.327 10.563-6.121 2.006-0.862 5.822-2.178 8.006-2.758 0 0 9.258-2.55 11.477-3.003 3.02 1.097 2.646 5.485 2.887 6.353 0.275 0.994-0.721 2.921-0.688 3.888-0.99 0.271-3.543 0.787-5.926 1.22-0.758 9e-3 -1.604 0.033-1.744 0.863l-0.119 0.717 0.762 0.331 0.365 0.148 2.535 0.936c1.273 0.385 4.051 0.677 5.891 0.871l0.959 0.104c2e-3 0 2.074 0.283 3.123 0.427 0.221 0.93 0.631 2.784 0.678 4.06 0.023 0.613 0.033 1.349 0.033 2.09 0 1.701-0.055 3.428-0.139 3.774-0.078 0.102-0.643 0.477-1.133 0.703l-1.07 0.488 0.744 0.908c1.492 1.826 3.16 3.97 3.365 4.399 0.035 0.127 0.051 0.384 0.051 0.727 0 1.663-0.367 5.334-0.615 5.963-0.264 0.5-2.531 2.694-3.131 2.937-0.604 0.222-1.779 0.305-2.059 0.248l-0.467-0.092-0.49 0.312c-0.463 0.453-0.279 1.005-0.066 1.644l0.373 1.75c-0.107 0.986-1.006 3.041-1.307 3.388-0.689 0.731-1.773 1.884-3.627 2.254-2.178 0.437-7.762 0.473-10.934 0.211-1.785-0.149-3.127 0.947-5.002 1.226l-3.754 0.866c-2.256-0.155-7.221 0-10.781-0.729-2e-3 0-2.627 0.102-2.627 0.102-1.27-0.062-2.473-0.123-3.646 1.089-1.496 1.531-2.137 2.838-2.137 4.411 0 0.146 4e-3 0.295 0.016 0.446 2e-3 0.026 2e-3 0.055 2e-3 0.085 0 0.779-0.611 3.152-2.344 7.62 0 3e-3 -0.256 0.667-0.256 0.667-0.623 1.63-2.076 5.449-2.883 6.287 0 0-1.221 1.32-1.902 2.06-1.205-0.543-3.268-1.593-4.021-2.541-1.412-1.772-6.998-6.865-11.414-8.684l-5.395-2.312-4.658-1.915c-0.955-0.26-2.285-0.137-3.258-0.044l-0.707 0.051c-0.045-5e-3 -0.467-0.127-0.467-0.127-0.024-0.028-0.104-0.156-0.104-0.507 0-0.137 0.012-0.309 0.047-0.521 0.254-1.63 1.518-3.1 2.533-4.279l0.354-0.413c0-2e-3 4.001-3.965 4.001-3.965l-0.586-0.675c-0.313-0.325-0.662-0.877-0.662-1.146 0-0.224 0.361-0.685 0.684-0.944l0.178-0.144 0.094-0.215c0.01-0.026 1.127-2.678 2.977-5.02l1.662-2.173c1.207-1.599 1.328-3.563 2.268-4.369 0 0 3.832-2.366 3.836-2.371 0 0.033 1.783 0.191 1.783 0.191l4.941 2.164-2.947-4.632z" fill="#fff"/>
	<path d="m465.7 227.6s-2.727-0.195-4.453-0.207c-1.725-5e-3 -3.305-0.545-4.861-0.125-1.561 0.422-3.682 0.786-5.344 1.564-1.66 0.776-3.613 1.568-4.133 2.385-0.518 0.814-0.855 1.675-1.135 2.654-0.277 0.977-0.332 1.541 0.428 2.236 0.76 0.691 0.051 0.491 0.051 0.491s-2.105-0.014-3.209 0.148c-1.105 0.166-3.631 0.609-4.619 1.383-0.99 0.778-1.383 0.479-1.811 1.986-0.424 1.512-0.475 2.362 0.166 4.178 0.637 1.816 0.93 2.47 2.172 2.821 1.244 0.356 2.178 0.809 2.178 0.809s-2.982 0.694-3.846 1.029c-0.857 0.333-2.119 0.361-3.59 0.807-1.467 0.448-2.283 0.602-2.283 0.602s-0.842 1.97-0.652 2.984c0.195 1.017-0.018 2.781 1.834 3.689 1.859 0.908 3.018 1.236 3.018 1.236s-0.201 0.042-0.131 1.12c0.086 1.078-0.213 2.147 0.637 2.861 0.848 0.729 1.129 1.092 2.578 1.408 1.447 0.312 4.51 1.371 6.031 1.42 0.674 0.021 1.414-0.059 2.08-0.146 0.84-0.114 1.557-0.255 1.883-0.271 0.58-0.026 3.033 2.489 3.721 3.453 0.689 0.965 0.381 4.433 0.283 5.457-0.098 1.03-0.576 7.81 0.01 8.459 0.584 0.641 1.457 0.602 1.807 0.413 0.34-0.196 5.572-3.418 7.311-5.131 1.727-1.722 4.883-4.381 5.85-6.419 0.957-2.031 0.016-2.779 0.43-3.909 0.412-1.132 0.693-0.764 1.469-1.792 0.773-1.031 2.84-4.961 3.047-5.671 0.197-0.712 0.436-1.892 0.133-2.845-0.316-0.951-1.623-2.765-1.623-2.765s0.291-1.356 0.896-2.144c0.605-0.791 2.424-3.827 2.416-4.792-0.025-0.967-0.436-3.578-0.992-4.316-0.561-0.731-1.498-1.477-1.498-1.477s1.883-5.326 2.389-6.433c0.508-1.106 1.012-2.88 0.521-3.885-0.48-1 0.316-1.449-1.412-2.13-1.727-0.682-3.023-1.529-4.256-1.59-1.232-0.057-3.414 0.188-3.414 0.188l-0.077 0.267z" enable-background="new    " fill="#fff"/>
	<path d="m456.15 226.39c0 1e-3 -1.328 0.33-1.328 0.33l-4.164 1.29-0.738 0.34c-1.639 0.749-3.186 1.457-3.773 2.379l-1.242 2.893c-0.123 0.427-0.223 0.85-0.223 1.274 0 0.289 0.064 0.578 0.182 0.869-0.947 0.038-1.951 0.083-1.951 0.083-1.719 0.257-3.986 0.737-5.045 1.565-4e-3 2e-3 -0.621 0.404-0.621 0.404-0.662 0.378-1.127 0.725-1.5 2.049-0.225 0.791-0.357 1.436-0.357 2.119 0 0.747 0.16 1.537 0.539 2.607 0.547 1.565 1.057 2.575 2.41 3.143-0.625 0.168-1.379 0.37-1.379 0.37l-1.373 0.309-2.152 0.476c-2e-3 1e-3 -2.619 0.691-2.619 0.691l-0.236 0.42c-0.141 0.325-0.754 1.828-0.754 3.017 0 0.171 0.012 0.335 0.041 0.488 2e-3 6e-3 0.074 0.557 0.074 0.557 0.109 1.055 0.295 2.819 2.254 3.781 0 0 1.449 0.591 2.385 0.974 0 0.047-0.021 0.097-0.021 0.143 0 0.187 0.01 0.356 0.02 0.485 0 0.012 0.014 0.736 0.014 0.736-2e-3 0.087-2e-3 0.176-2e-3 0.267 0 0.816 0.078 1.765 0.945 2.494-8e-3 -7e-3 0.246 0.213 0.246 0.213 0.766 0.673 1.271 1.07 2.721 1.386 2e-3 1e-3 1.84 0.49 1.84 0.49 1.516 0.428 3.236 0.915 4.355 0.952l2.227-0.153c2e-3 -1e-3 1.027-0.155 1.027-0.155l0.783-0.111c0.285 0.184 2.262 2.125 2.938 3.074 0.18 0.253 0.434 1.585 0.119 4.844-0.127 1.347-0.707 8.104 0.238 9.153 0.918 1.007 2.254 0.959 2.91 0.604 0.074-0.042 5.619-3.416 7.514-5.283 6e-3 -3e-3 1.301-1.245 1.301-1.245 1.74-1.643 3.906-3.688 4.734-5.431 0.426-0.899 0.535-1.613 0.535-2.193 0-0.357-0.043-0.666-0.08-0.935l6e-3 -0.857c0-1e-3 0.414-0.618 0.414-0.618l0.93-0.94c0.844-1.129 2.951-5.135 3.191-5.966 0.209-0.754 0.314-1.442 0.314-2.063 0-0.478-0.063-0.915-0.188-1.307-2e-3 -9e-3 -1.008-1.738-1.49-2.571 0.16-0.39 0.617-1.512 0.617-1.512 0.258-0.335 2.605-3.854 2.605-5.338v-0.015c-0.02-0.736-0.365-3.779-1.178-4.854-2e-3 -1e-3 -0.68-0.672-1.17-1.157 0.33-0.891 2.162-5.83 2.162-5.83 0.232-0.501 0.807-1.892 0.807-3.227 0-0.502-0.08-0.997-0.293-1.432 2e-3 4e-3 -0.105-0.506-0.105-0.506-0.064-0.889-0.379-1.512-1.789-2.069l-1.508-0.663c-1.086-0.504-2.027-0.939-3.035-0.99-8e-3 0-4.213 0.229-4.213 0.229s-0.02 0.109-0.035 0.191c-1.07-0.05-3.732-0.174-3.732-0.174-2e-3 0-1.74-0.14-1.74-0.14-1.084-0.131-2.207-0.265-3.364 0.046zm-8.812 10.631c0.41-0.736-0.27-1.352-0.527-1.586-0.354-0.325-0.418-0.425-0.164-1.318 0-1e-3 1.029-2.416 1.029-2.416 0.299-0.471 1.922-1.214 2.998-1.705l0.754-0.346c0-2e-3 3.813-1.168 3.813-1.168l1.383-0.343c0.818-0.219 1.68-0.117 2.674 4e-3l1.949 0.153 5.113 0.24s0.053-0.169 0.104-0.338c0.793-0.045 2.684-0.151 2.684-0.151 0.656 0.033 1.445 0.4 2.361 0.823l1.604 0.704 0.639 0.342c8e-3 0.172 0.291 1.339 0.291 1.339 0.266 0.543 0.035 1.883-0.529 3.115 0 1e-3 -2.625 7.059-2.625 7.059l0.496 0.46 1.342 1.317c0.33 0.438 0.777 2.702 0.807 3.792-0.023 0.604-1.51 3.274-2.229 4.216-0.711 0.921-1.029 2.345-1.064 2.504l-0.074 0.348 1.725 2.892c0.168 0.534 0.117 1.361-0.148 2.316-0.164 0.573-2.154 4.383-2.896 5.371l-0.596 0.601-1 1.426c0 4e-3 -0.098 1.726-0.098 1.726 0.08 0.586 0.156 1.139-0.299 2.106-0.684 1.434-2.711 3.349-4.34 4.888l-1.332 1.276c-1.607 1.585-6.721 4.755-7.123 4.988-0.021 2e-3 -0.414 0.061-0.684-0.238-0.213-0.652 0.029-5.74 0.221-7.765 0.465-4.794-0.201-5.719-0.449-6.068-0.025-0.037-3.098-3.894-4.494-3.831-6e-3 0-0.984 0.131-0.984 0.131l-0.979 0.147c-6e-3 0-1.934 0.138-1.934 0.138-0.896-0.028-2.572-0.502-3.92-0.884l-1.949-0.516c-1.059-0.232-1.289-0.434-1.91-0.979l-0.264-0.23c-0.293-0.246-0.316-0.568-0.307-1.36l-0.02-0.886c0 0.012 8e-3 -0.648 8e-3 -0.648l6e-3 -0.613-0.539-0.659-2.867-1.179c-0.984-0.483-1.137-1.241-1.25-2.341l-0.094-0.705c-0.01-0.051-0.014-0.11-0.014-0.175 0-0.478 0.24-1.263 0.471-1.887 0.641-0.167 1.855-0.487 1.855-0.487l1.934-0.422 1.719-0.406 6.471-1.722-2.557-0.966-2.324-0.864c-0.775-0.22-0.936-0.451-1.568-2.25-0.299-0.852-0.432-1.432-0.432-1.999 0-0.497 0.102-0.984 0.285-1.634 0.201-0.708 0.27-0.747 0.654-0.965l0.844-0.555c0.555-0.434 2.16-0.895 4.193-1.198 4e-3 0 3.066-0.139 3.066-0.139 0.449 0.162 0.898-0.137 1.09-0.48z"/>
	<path d="m462.72 234.14s-9.133 0.329-10.908 0.798c-1.773 0.472-4.281 0.731-4.281 0.731s-1.359 1.364-0.127 1.128c1.229-0.231 3.361-0.212 4.648-0.627 1.279-0.411 3.82-0.472 5.461-0.781 1.643-0.314 4.877-0.76 5.777-0.505 0.895 0.255 2.131 0.021 2.131 0.021l-2.701-0.765z"/>
	<path d="m439.43 247.21s4.223-0.594 5.453-0.828c1.236-0.236 3.396-0.811 4.627-1.047 1.23-0.236 3.758-1.139 5.396-1.45 1.645-0.312 3.273-0.543 3.809-0.39 0.539 0.153 1.75 0.689 1.75 0.689s-0.873 0.337-1.873 0.441c-1.004 0.109-3.078-0.092-4.135 0.189-1.051 0.29-3.717 1.475-5.18 1.838-1.467 0.363-6.408 1.323-7.951 1.275-1.533-0.051-1.896-0.717-1.896-0.717z"/>
	<path d="m453.87 255.14s-3.725 0.113-4.904 0.169c-1.184 0.049-4.391 1.087-5.338 1.012-0.953-0.078-1.898 0.368-2.666 0.347-0.773-0.021-2.369 0.516-3.004 0.724-0.643 0.205-2.26 0.238-2.26 0.238s-1.436 0.895 0.568 0.687c1.996-0.208 2.229-0.337 4.516-0.856 2.281-0.524 4.178-0.371 5.463-0.789 1.287-0.412 2.904 0.048 3.955-0.237 1.051-0.286 5.227-0.755 5.227-0.755l-1.557-0.54z"/>
	<path d="m472.67 258.64c0.379-1.888 0.119-1.5-0.271-2.833-0.391-1.335-1.178-2.329-1.178-2.329s0.703-0.868 1.244-2.245c0.549-1.38 1.773-3.021 2.24-4.114 0.459-1.095-0.311-2.691-0.641-3.701-0.32-1.012-2.115-2.239-2.115-2.239s2.998-8.997 2.496-7.761c-0.498 1.231-1.557 1.704-3.109 2.333-1.557 0.634-2.023 0.653-2.023 0.653s0.408 1.8 0.313 2.694c-0.1 0.885-0.623 2.731-1.938 3.583-1.314 0.854-3.82 1.066-5.258 1.271-1.432 0.205-3.234 0.613-3.234 0.613l0.611 1.087s-0.135 3.182-0.379 4.034c-0.236 0.846-1.732 1.804-2.48 2.816-0.746 1.017-2.242 1.975-2.242 1.975s0.592 0.627 0.723 1.203c0.135 0.581-1.541 2.238-2.006 3.331-0.424 0.995-4.668 4.728-5.414 5.378l-8.336 12.274c1.039 1.161 2.258 2.279 3.387 3.3 2.432 2.218 9.184 9.87 10.07 9.665 0.873-0.209 8.375-12.099 10.215-13.725 1.842-1.62 4.381-4.119 4.881-5.352 0.506-1.241 0.033-2.289 0.18-3.324 0.139-1.033 0.438-1.559 1.607-2.448 1.173-0.896 2.276-4.26 2.657-6.139z"/>
				<path d="m337.69 167.59l-0.064-9e-3c-1.092-0.484-5.889-2.67-9.434-5.27-4.025-2.951-13.957-10.2-18.521-14.762-4.563-4.563-11.001-10.467-12.613-11.811-1.611-1.34-2.685-1.61-2.685-1.61l-4.831 0.539s-3.489-4.831-5.099-5.37c-1.613-0.535-19.595-8.317-23.889-8.588-4.294-0.269-12.882-1.609-19.863-0.538-6.978 1.076-15.836 2.956-19.86 5.371-4.026 2.414-18.79 12.076-18.79 12.076s-0.458 2.708-0.804 4.297c-0.286 1.309-2.954 9.927-4.295 14.761-1.34 4.833-2.952 15.029-2.952 15.029s4.026 5.1 6.173 6.98c2.146 1.877 4.563 3.219 5.369 2.951 0.802-0.269 1.072-1.881 1.072-1.881l0.268-8.855s2.019 0.269 4.844 0.472c0.147 2.479 1.653 27.293 2.671 29.591 1.074 2.416 9.663 16.64 11.005 19.053 1.341 2.42 5.904 8.86 8.32 11.812 2.416 2.953 4.831 4.026 8.321 5.638 3.49 1.608 9.932 2.413 15.567 4.56 5.637 2.149 17.448 6.442 20.666 8.054 3.222 1.609 13.959 4.564 18.789 4.831 4.832 0.271 6.71 0 6.71 0s6.172-8.053 6.172-10.2c0-2.146 4.295-14.494 4.832-17.178 0.537-2.682 0.805-5.369 0-10.466-0.803-5.1-0.27-8.051-1.879-12.078-1.611-4.024-1.611-9.127-2.416-11.004-0.768-1.792 0.412-2.119-0.873-2.843 0.268-2.347 0.779-6.86 0.99-8.952 0.229-2.287 0.818-7.826 1.059-10.059 0.15 0.076 0.311 0.141 0.477 0.205 1.924 0.686 11.889 0.96 15.047 1.097 3.164 0.139 6.807-0.618 8.453-1.097 1.65-0.481 2.543-1.788 2.68-3.369s-0.617-1.377-0.617-1.377zm-69.169 7.987l-0.054 1.267-52.883-0.396c-0.024-0.471-0.039-0.905-0.026-1.264l52.963 0.393zm-0.095 2.218l-0.05 1.161-52.676-0.395c-0.016-0.39-0.039-0.78-0.062-1.161l52.788 0.395zm-0.094 2.217l-0.045 1.056-52.545-0.393c-0.011-0.429-0.017-0.787-0.019-1.057l52.609 0.394zm-0.095 2.214l-0.041 0.953-52.391-0.393c-0.011-0.332-0.021-0.649-0.031-0.951l52.463 0.391zm-0.095 2.217l-0.036 0.847-52.226-0.389c-0.011-0.286-0.021-0.569-0.031-0.847l52.293 0.389zm-0.095 2.22l-0.032 0.74-52.054-0.389c-0.01-0.247-0.02-0.494-0.029-0.741l52.115 0.39zm-0.095 2.217l-0.027 0.636-51.878-0.391c-9e-3 -0.208-0.017-0.418-0.026-0.632l51.931 0.387zm-0.051 1.185l-0.066 1.559-51.701-0.387c-8e-3 -0.186-0.016-0.378-0.024-0.577l51.791-0.595zm-2.31 3.915l-49.352-0.267s-0.01-0.231-0.027-0.625l51.585-0.6-0.064 1.494-2.142-2e-3zm33.998 9.828c0.422-0.939 0.828-1.899 1.146-2.777 0.434-1.191 1.109-2.585 1.861-3.907-0.638 2.343-1.718 5.16-3.007 6.684z"/>
		<path d="m267.63 195.5c-1.085-0.179-3.704 0.996-3.704 0.996 0.542 0.359 4.145 5.152 7.497 8.04 19.655 16.921 30.794 12.191 34.173 1.252 1.604-5.183 2.447-11.599 2.447-11.599l0.512-0.17s-1.162 9.04-2.959 14.069c-0.934 2.613-2.695 5.381-5.248 7.114-2.811 1.914-9.459 2.112-12.577 1.295-14.012-3.665-23.717-20.476-23.717-20.476l3.576-0.521z" fill="#fff"/>
		<path d="m309.47 190.94c-1.094 0.863-2.123 2.177-2.846 3.359-1.451 2.363-1.953 4.951-3.102 7.455-0.975 2.116-2.674 4.39-4.68 5.602-2.256 1.366-5.929 1.284-8.387 0.949-9.235-1.276-15.034-7.046-21.691-13.213-0.405-0.373 2.116-0.519 1.877-0.735 0.628 0.568 3.524 4.148 6.549 6.26 4.567 3.187 8.054 5.029 13.56 5.787 2.382 0.33 4.568-0.054 6.766-1.175 2.061-1.052 3.51-4.755 4.213-6.89 2.332-7.115 6.09-7.285 7.172-8.139 0.041-0.035 0.678 1.21 0.498 1.354l0.071-0.614z" fill="#fff"/>
		<path d="m213.9 131.59c2.85-1.113 6.518-2.451 11.619-2.723 5.098-0.266 14.713 0.326 23.886 2.685 5.342 1.373 17.572 7.631 18.251 8.32 1.274 1.293 1.771 2.966-0.269 5.367-1.114 1.31-9.486 10.038-10.924 11.56-1.496 1.585-4.49 5.399-6.66 4.374-1.629-0.772-14.146-12.326-19.187-15.126-4.831-2.684-12.218-7.35-16.104-8.857-4.047-1.569-5.905-1.88-5.905-1.88s2.32-2.557 5.293-3.72zm1.462 4.557c3.565 1.362 10.287 5.426 14.693 7.785 4.596 2.458 15.876 12.321 17.365 13.005 1.986 0.913 4.882-2.095 6.318-3.336 1.385-1.194 9.431-8.021 10.503-9.049 1.97-1.895 1.56-3.274 0.413-4.372-0.609-0.585-11.781-6.119-16.703-7.421-8.451-2.244-17.367-3.062-22.113-3.02-4.745 0.042-8.194 1.007-10.875 1.816-2.799 0.847-5.032 2.852-5.032 2.852s1.718 0.321 5.431 1.74z" fill="#fff"/>
		<path d="m204.57 140.55s-0.077-0.566 0.742 0c4.289 2.977 15.019 11.377 17.254 13.284 1.826 1.557 4.026 3.22 1.61 5.1-2.415 1.878-1.988 2.562-6.824 2.441-2.817-0.07-5.369-0.644-7.956-1.408-3.098-0.918-8.493-3.062-9.788-3.942-1.547-1.057-1.972-1.691-1.972-1.691s19.562 7.285 21.977 4.329c2.416-2.953 1.344-3.755 0.269-4.828-1.073-1.073-8.296-7.381-9.395-8.32-1.374-1.181-5.917-4.965-5.917-4.965z" fill="#fff"/>
		<path d="m281.16 138.83c0.422 0.424 2.805 8.454 2.805 8.454s-8.735 2.8-11.838 5.051c-3.1 2.246-8.04 8.575-8.04 8.575s22.67 1.021 27.738 1.453c5.068 0.429 18.445 2.279 18.445 2.279l0.422-0.982s-11.262-1.852-17.033-2.983c-5.771-1.137-19.147-2.284-19.147-2.284s12.538-3.081 14.51-3.643c1.972-0.557 3.236-0.554 3.944-1.965 0.708-1.404-2.104-3.664-3.369-5.354-1.264-1.69-7.735-8.038-8.294-9.307l-0.143 0.706z" fill="#fff"/>
		<path d="m315.46 219.76c-2.361 1.055-5.33 2.043-9.801 6.226-2.928 2.739-6.574 6.24-9.89 8.504-3.637 2.489-7.459 3.196-11.573 1.635-3.888-1.477-7.532-3.683-11.068-5.848-11.031-6.756-21.281-14.697-32.509-21.148-4.041-2.324-8.482-4.825-12.8-6.582-3.783-1.542-9.951-2.243-7.147 3.787-5.537-4.466-3.627-10.691-4.092-10.863 2.908 1.073 5.804 2.09 8.554 3.522 3.455 1.795 6.842 3.725 10.227 5.645 5.29 3.003 10.468 6.065 15.528 9.441 5.808 3.874 11.532 7.872 17.37 11.696 3.452 2.265 6.99 4.412 10.658 6.31 3.847 1.994 7.4 3.532 11.726 2.199 4.339-1.333 8.203-5.15 11.549-8.059 3.418-2.97 8.082-7.74 12.84-8.893 0.27-0.064 0.391 2.265 0.291 2.309l0.137 0.119z" fill="#fff"/>
		<g fill="#fff">
			<path d="m295.04 171.55l-2.686 34.354-1.344-0.269s-2.683-14.494-2.949-16.104c-0.269-1.606-1.345-18.251-1.345-18.251l8.324 0.27z"/>
			<path d="m305.87 216.55c0.318 0.373 0.869 0.417 1.238 0.104l4.406-3.736c0.367-0.312 0.412-0.868 0.098-1.241-0.311-0.368-0.865-0.413-1.236-0.099l-4.4 3.737c-0.373 0.31-0.418 0.867-0.106 1.235z"/>
			<path d="m306.3 210.92c0.314 0.371 0.818 0.458 1.125 0.2l3.643-3.092c0.305-0.262 0.303-0.77-0.016-1.142-0.314-0.371-0.814-0.458-1.123-0.199l-3.641 3.093c-0.306 0.258-0.301 0.77 0.012 1.14z"/>
			<path d="m308.52 203.68c0.316 0.373 0.68 0.578 0.811 0.467l1.59-1.35c0.133-0.116-0.014-0.507-0.326-0.877-0.314-0.371-0.678-0.578-0.811-0.465l-1.59 1.352c-0.131 0.112 0.011 0.503 0.326 0.873z"/>
			<path d="m252.76 198.57c-0.287 0.465-0.143 1.074 0.319 1.359l5.508 3.414c0.461 0.285 1.07 0.141 1.358-0.321 0.286-0.464 0.141-1.069-0.322-1.356l-5.505-3.414c-0.465-0.288-1.072-0.144-1.358 0.318z"/>
			<path d="m246.71 199.28c-0.288 0.462-0.144 1.068 0.319 1.356l5.507 3.41c0.462 0.287 1.07 0.144 1.358-0.319 0.287-0.465 0.141-1.071-0.319-1.357l-5.508-3.411c-0.463-0.288-1.072-0.144-1.357 0.321z"/>
		</g>
		<path d="m309.58 172.5s-3.238-0.429-3.941 0.137c-0.705 0.564-1.27 1.269-1.27 1.831 0 0.563-1.127 16.333-1.127 16.333s1.416-0.602 2.256-1.007c0.844-0.399 4.082-17.294 4.082-17.294z" fill="#fff"/>
		<path d="m280.16 127.71s-8.309 1.552-10.422 1.833c-2.114 0.284-3.1 0.564-5.208 1.411-2.114 0.845-2.114 1.125-4.506 0.845-2.396-0.283-3.242-1.41-9.716-3.1-6.479-1.689-11.125-2.252-15.915-2.534-4.786-0.28-15.911 1.406-15.911 1.406" fill="none"/>
		<path d="m213.95 172.18l29.954 1.932s-18.521 2.64-19.567 2.416c-1.045-0.226 20.292 2.295 20.292 2.295s-21.903 2.899-22.948 2.899c-1.044 0 17.997 0.967 17.997 0.967s-14.865 4.21-15.702 3.984c-0.835-0.224 15.459 3.02 15.459 3.02l-15.943 1.932 12.562 1.331-21.668 1.441-0.839-19.589 0.403-2.628z"/>
		<g fill="none">
			<path d="m257.38 148.41"/>
			<path d="m218.14 133.57"/>
		</g>
		<g fill="none">
			<path d="m261.45 145.15"/>
			<path d="m225.07 132.49"/>
		</g>
		<g fill="none">
			<path d="m252.86 153.27"/>
			<path d="m223.16 138.1"/>
		</g>
		<polygon points="268.77 195.1 270.7 195.61 270.76 171.07 268.77 171.59" fill="#fff"/>
		<path d="m297.73 246.44l5e-3 -0.163c0-0.432 0.687-6.853 0.896-8.811l0.024-0.229 10.244-11.712c0.557-0.568 2.01-2.071 2.355-2.51 0.588-0.743 1.564-0.55 2.049-0.318l0.375 0.175v1.139c4e-3 0.071 0.023 0.34 0.023 0.771 0 0.736-0.057 1.863-0.346 2.958-0.465 1.765-1.363 4.584-1.799 5.83v4e-3c-0.016 0.054-0.031 0.106-0.055 0.156-0.496 1.434-1.584 4.968-2 6.8-0.457 2.008-1.766 5.193-1.822 5.33l-0.1 0.238-0.221 0.106c-0.035 0.014-0.93 0.438-1.408 0.589-0.504 0.158-6.225 1.439-6.9 1.566-0.448 0.085-0.741-0.089-0.911-0.255-0.451-0.44-0.426-1.206-0.409-1.664zm1.241 0.542c1.105-0.222 6.25-1.382 6.64-1.504 0.262-0.083 0.729-0.289 1.041-0.429 0.154-0.394 0.494-1.248 0.834-2.206l-5.092 1.347c-0.471 0.123-0.951-0.155-1.074-0.625-0.123-0.467 0.156-0.951 0.625-1.073l5.584-1.475c0.186-0.049 0.377-0.03 0.545 0.038 0.086-0.304 0.168-0.595 0.225-0.856 0.113-0.5 0.275-1.121 0.461-1.791l-5.316 1.404c-0.467 0.122-0.951-0.158-1.074-0.625-0.123-0.47 0.156-0.951 0.627-1.076l5.582-1.474c0.234-0.059 0.471-0.021 0.664 0.089 0.24-0.802 0.482-1.588 0.697-2.26l-4.357 1.151c-0.449 0.12-0.916-0.165-1.041-0.635-0.125-0.467 0.145-0.943 0.594-1.064l5.377-1.42c0.029-9e-3 0.061-0.012 0.094-0.017 0.164-0.493 0.363-1.104 0.568-1.755l-2.531 0.669c-0.285 0.074-0.617-0.245-0.742-0.714-0.125-0.467 6e-3 -0.908 0.295-0.984l3.41-0.905c0.053-8e-3 0.105-5e-3 0.156 0 0.154-0.52 0.293-1.01 0.404-1.435 0.248-0.937 0.295-1.935 0.295-2.579 0-0.417-0.018-0.684-0.018-0.691l-2e-3 -0.028v-0.189c-0.113-7e-3 -0.213-4e-3 -0.256 0.045-0.461 0.583-2.34 2.505-2.42 2.585 0 0-9.648 11.032-9.93 11.355-0.35 3.263-0.85 8.044-0.863 8.429 0-9e-3 -6e-3 0.208-6e-3 0.208-1e-3 0.066-5e-3 0.168-5e-3 0.274 0 0.076 2e-3 0.155 9e-3 0.216z" fill="#fff"/>
	<path d="m113.74 441.25c1.421 11.499-6.103 21.892-16.806 23.216-10.704 1.322-20.529-6.927-21.951-18.424l-12.235-99.005c-1.422-11.497 6.103-21.891 16.807-23.214 10.703-1.323 20.529 6.926 21.95 18.423l12.235 99.004z"/>
	<path d="m306.76 250.06c-0.713-0.019-10.333 1.67-11.248 1.618-4.832-0.267-15.567-3.222-18.79-4.832-3.22-1.611-15.029-5.904-20.666-8.053-5.635-2.147-12.078-2.951-15.567-4.56-3.49-1.612-5.906-2.685-8.321-5.638-2.416-2.951-6.978-9.391-8.32-11.811-1.342-2.414-9.931-16.638-11.004-19.054-0.321-0.722-0.689-3.69-1.048-7.474h-9e-3c0.443 5.218 0.925 9.707 1.331 10.62 1.073 2.416 9.662 16.641 11.004 19.053 1.342 2.42 5.905 8.86 8.32 11.812 2.416 2.954 4.831 4.027 8.321 5.639 3.489 1.608 9.931 2.413 15.566 4.559 5.637 2.149 17.446 6.443 20.666 8.054 3.223 1.609 13.958 4.564 18.79 4.831 0.797 0.044 1.488 0.07 2.133 0.089l8.842-4.853z" fill="#fff"/>
	<path d="m221.39 261.65l-4.065-10.885c-0.262-0.701-1.236-0.879-2.183-0.401l-14.041 7.129c-0.943 0.481-1.496 1.438-1.233 2.139l4.065 10.882c0.26 0.706 1.237 0.885 2.183 0.401l14.043-7.129c0.942-0.475 1.495-1.435 1.231-2.136zm-2.701 0.981l-10.486 6.208c-0.706 0.42-1.469 0.331-1.706-0.195l-3.688-8.2c-0.235-0.528 0.142-1.292 0.846-1.713l10.485-6.216c0.706-0.417 1.468-0.326 1.705 0.201l3.688 8.202c0.239 0.524-0.141 1.298-0.844 1.713z" fill="#fff"/>
	<path d="m301.74 270.46s8.811 4.673 10.705 7.572c1.902 2.897 8.037 11.807 8.818 13.031 0.783 1.224 1.453 5.465 0.787 6.801-0.67 1.337-5.236 4.909-6.457 7.36-1.229 2.453-2.117 3.124-2.227 5.02-0.109 1.895-1.334 4.343-3.117 6.242-1.781 1.897-6.795 3.015-13.256 10.377-6.454 7.36-6.792 6.358-15.477 15.949-8.688 9.594-14.26 9.599-16.708 12.275-2.448 2.678-7.237 7.247-12.919 10.821-5.683 3.577-11.586 7.035-12.701 7.035-1.117 0-14.491-0.55-21.178-2.77-6.691-2.219-23.193-11.014-26.539-12.682-3.346-1.669-20.964-11.018-34.347-21.596-13.385-10.576-21.301-12.574-24.534-16.7-3.237-4.121-4.683-1.221-8.595-12.92-3.91-11.701-2.017-14.935-1.689-23.403 0.326-8.476 0.661-6.357 2.885-13.606 2.224-7.242 6.894-19.952 9.231-23.521 2.337-3.567 6.235-8.587 11.469-12.378 5.236-3.797 5.57-4.465 10.363-5.14 4.792-0.672 8.689-5.692 15.384 4.895 6.696 10.583 11.717 14.478 15.289 21.271 3.575 6.796 5.246 8.469 8.928 13.93 3.681 5.457 9.369 10.802 13.274 13.588 3.904 2.778 5.018 2.219 10.038 10.02 5.023 7.797 5.8 4.567 6.583 6.903 0.782 2.342-0.891 1.788 0.339 4.907 1.228 3.121 0.449 4.677 3.122 3.227 2.675-1.451 2.34-3.01 4.344-2.567 2.01 0.446 6.688 0.554 9.364 0.77 2.676 0.226 4.238 1.561 5.907-1.786 1.672-3.347 5.68-6.357 7.683-6.468 2.007-0.114 4.682-0.451 5.797-2.124 1.113-1.672 0.885-4.571 5.343-6.249 4.458-1.675 6.686-2.232 8.137-2.902 1.448-0.672 1.894 0.111 5.124-2.456 3.227-2.566 4.011-1.342 5.793-1.566 1.784-0.222 7.799-6.139 7.799-6.139l7.238-5.021z"/>
	<path d="m439.24 406.85c-4.359 10.182-21.66 25.993-31.102 30.78 16.463-12.889 10.982-15.019-8.098-7.018 27.382-12.247 33.806-18.674 39.2-23.762z" fill="#fff"/>
	<path d="m192.81 246.28c-0.779-0.686-4.018-6.994-4.824-7.539-1.81-2.65-3.798-5.254-6-7.735-5.695-6.423-12.556-10.186-18.264-12.953-0.513 0.26-0.256-0.401-0.771-0.09 6.029 2.892 12.532 8.082 18.518 15.262 2.143 2.569 4.068 5.249 5.815 7.969 0.791 0.575 4.016 6.914 4.779 7.631 9.347 8.763 22.337-0.028 19.689-4.308-1.925 3.058-11.422 8.371-18.942 1.763z" fill="#fff"/>
	<path d="m323.06 289.92l-8.9-10.212c-2.088-3.192-9.863-10.299-11.414-11.123l-1.143-0.607-8.451 5.862-0.131 0.127c-2.463 2.425-6.94 3.572-7.902 3.907-9e-3 -0.026 0.514 1.602 0.514 1.602-1.585-0.187-3.246-0.175-6.034 2.05-1.823 1.448-2.413 1.562-3.039 1.684l-2.071-1.549-2.713 0.983-4.864 3.914c-4.192 1.576-5.203 4.217-5.874 5.966l-0.49 1.094c-0.297 0.446-1.26 1.017-4.147 1.179-2.985 0.166-7.585 3.878-9.463 7.639-0.584 1.17-0.584 1.17-1.99 0.899l-1.838-0.281c-9e-3 0-2.978-0.184-2.978-0.184-2.178-0.12-4.885-0.271-6.105-0.54-2.337-0.52-3.438 0.663-4.166 1.444 0 0-0.765 0.615-1.231 0.99-0.218-0.709-0.553-1.8-0.553-1.8-0.238-0.604-0.311-0.91-0.311-1.123 0-0.137 0.031-0.233 0.067-0.344 0.144-0.446 0.272-0.928 0.272-1.531 0-0.5-0.089-1.085-0.329-1.807-0.569-1.696-1.524-2.163-2.374-2.47-0.497-0.177-1.659-0.595-4.437-4.906-4.017-6.242-5.771-7.521-8.526-9.243l-2.066-1.358c-3.661-2.612-9.213-7.808-12.746-13.045l-2.741-3.942c-2.068-2.918-3.054-1.62-5.559-6.383-0.706-1.342-6.703-12.125-7.508-13.307l4.889 9.37s1.782 3.187 2.308 5.261c2.302 3.92 3.963 5.904 6.852 10.188 3.681 5.457 7.229 12.92 11.134 15.706 3.904 2.779 7.158 0.102 12.178 7.902 5.023 7.797 5.8 4.567 6.583 6.903 0.782 2.342-0.891 1.788 0.339 4.907 1.228 3.121 0.449 4.677 3.122 3.227 2.675-1.451 2.34-3.01 4.344-2.567 2.01 0.446 5.296 1.628 7.973 1.842 2.676 0.227 6.551 1.689 8.22-1.658 1.672-3.348 4.759-7.559 6.762-7.669 2.007-0.114 6.512 2.352 7.628 0.679 1.113-1.673-0.946-7.374 3.512-9.051 4.458-1.675 6.686-2.232 8.137-2.902 1.448-0.672 1.894 0.111 5.124-2.456 3.227-2.566 4.011-1.342 5.793-1.566 1.784-0.222 7.799-6.139 7.799-6.139l7.237-5.021s8.811 4.673 10.705 7.572c1.902 2.897 7.275 13.159 8.059 14.383s0.09 4.44-0.576 5.775c-0.67 1.337-3.113 4.583-4.334 7.034-1.229 2.453-2.117 3.124-2.227 5.02-0.109 1.895-1.334 4.343-3.117 6.242-1.781 1.897-6.795 3.015-13.256 10.377-6.454 7.36-8.959 3.899-17.645 13.491-6.827 7.541-9.285 8.987-14.541 14.733-2.448 2.678-7.237 7.247-12.919 10.821-5.683 3.577-11.586 7.035-12.701 7.035-1.117 0-14.491-0.55-21.178-2.77-6.691-2.219-23.71-12.528-27.055-14.196-3.347-1.67-20.448-9.504-33.831-20.082-0.238-0.189-0.448-0.335-0.683-0.52l3.271 3.756c14.753 11.261 30.626 20.167 30.811 20.258 1e-3 0 2.931 1.502 2.931 1.502 6.376 3.293 18.244 9.422 23.887 11.295 6.837 2.269 20.281 2.878 21.846 2.878 0.692 0 2.975 2.25 14.671-5.109 5.438-3.42 8.384-8.917 12.515-13.437 0.58-0.63 1.604-1.142 3.026-1.85 3.078-1.533 7.728-3.85 13.688-10.434l8.598-8.825 6.903-7.15c4.108-4.681 7.504-6.641 9.985-8.072l3.221-2.25c2.135-2.272 3.549-5.174 3.691-7.57 0.041-0.733 0.225-1.071 0.855-2.13l1.15-2.064c0.543-1.096 2.334-2.856 3.643-4.142 1.514-1.491 2.391-2.378 2.811-3.221 1.064-2.127 0.202-7.171-0.897-8.891z" fill="#fff"/>
	<path d="m297.04 391.52c-21.834 22.263-15.218 42.531-28.083 47.514 26.214-10.154 9.029-28.087 28.083-47.514z" fill="#fff"/>
	<path d="m281.38 268.19s-70.859 8.264-72.291 8.87c-1.431 0.606-4.501 2.899-6.498 5.399-1.997 2.498-3.888 9.514-3.307 17.994 0.581 8.483 4.783 15.045 7.298 17.308 1.151 1.036 2.296 1.64 3.213 2.002-2.509-2.842-5.869-8.838-6.382-16.362-0.582-8.48 1.309-15.496 3.306-17.994 1.997-2.5 5.067-4.793 6.498-5.399 2.928-1.239 0.879-1.63 70.219-9.717 0 0 5.122 0.686 6.894 1.521 0.653 0.31 1.396 0.594 2.227 1.003-2.65-2.571-4.768-3.203-6.354-3.951-1.773-0.835-4.823-0.674-4.823-0.674z" fill="#fff"/>
	<path d="m285.5 270.31s-70.858 8.261-72.291 8.869c-1.43 0.604-4.501 2.897-6.498 5.397s-3.888 9.516-3.306 17.995c0.58 8.483 4.782 15.045 7.297 17.31 2.514 2.26 5.056 2.524 5.056 2.524s6.827-0.725 16.383-1.793l0.712-11.76 12.463-9.141 44.531-28.907c-1.791-0.62-4.347-0.494-4.347-0.494zm18.916 11.643c-0.367-0.026-0.66-0.063-0.904-0.11l1.207 2.488-0.303-2.378z"/>
	<path d="m29.425 585.82l-0.012-5e-3c0 1e-3 -0.357 1.728 0.012 5e-3zm100.24-21.417l-5.836 0.354-5.743 4.146-6.216-5.351-6.748-1.419c-8.889-2.2-9.002-7.201-9.002-7.201l-8.716-6.087s-4.713-1.664-9.725-2.479c-5.012-0.813-7.481-0.439-7.481-0.439l-4.892 0.289-2.656-1.439-5.835-1.592-6.543-0.354s-5.659-1.236-10.786 10.611c-3.978 9.193-6.189 13.968-9.017 27.407-0.568 2.694-0.883 4.188-1.049 4.972l5.336 1.661-0.812 14.979c-0.196 1.081-0.547 3.141-0.897 5.74l-0.885-0.087-0.526 5.373 0.8 0.077c-0.095 1.039-0.179 2.108-0.247 3.19l-1.57-0.154-0.526 5.374 1.935 0.189c2e-3 0.347 3e-3 0.693 9e-3 1.037 0.02 0.85 0.028 1.668 0.038 2.484h-2.888v5.399h2.918c4e-3 1.328 7e-3 2.61 0.022 3.784l-3.573 0.675 1.458 7.733 2.775-0.524-1.863 4.354c1.895 5.356 3.832 10.043 5.773 14.209 0.323 0.989 0.737 1.981 1.303 2.791 1.84 2.648 8.438 5.104 8.438 5.104 1.262 1.034 1.378 1.349 3.797 1.727l-0.061 0.126c25.364 3.837 34.364 3.993 34.364 3.993l1.797-8.218-1.289-1.152c3.086-22.224-7.972-24.438-7.972-24.438l-5.397-1.246 1.064-7.867 2.141-5.955 0.523-4.077 1.407 1.357 8.656-7.583 6.722-1.719 3.389 0.11-3.203 2.113 4.504 0.925 1.759 0.71-6.832 4.504 1.592 5.727 8.506-1.445c7.138-3.055 10.181-9.065 10.181-9.065l9.169-10.104c17.525-38.036 8.41-43.229 8.41-43.229zm-25.913 56.96l-1.155 0.396-0.072 0.104-0.102-0.042-0.129 0.047-0.037-0.111-2.238-0.957 0.836-1.128c0.94-1.258 2.347-1.975 3.709-2.676 1.018-0.523 1.976-1.017 2.696-1.703l0.951 0.637c0.07-0.133 0.185-0.229 0.236-0.362l2.88 0.382c-1.164 3.18-4.863 4.465-7.575 5.413z" clip-rule="evenodd" fill-rule="evenodd"/>
	<path d="m216.72 634.83c-0.611 37.833 6.674 48.321 27.001 54.537 20.325 6.221-2.688-5.376-7.91-7.934-5.22-2.561-17.549-21.376-19.091-46.603z" fill="#fff"/>
	<polygon points="268.6 195.64 260.4 198.01 266.74 172.7 268.62 172.7"/>
	<path d="m449.81 317.83l1.035-3.004c-0.732 2e-3 -1.662 0.208-2.891 0.822-2.768 1.384-5.85 1.142-8.537 0.955 4.223 0.929 7.67 1.648 10.393 1.227z" fill="#fff"/>
	<path d="m379.21 234.82s3.875 1.091 6.781 2.537c2.904 1.443 5.252 2.916 6.027 3.47 0.771 0.55 1.965 1.524 2.135 2.475 0.176 0.948 0.18 5.039-0.934 5.846-1.115 0.8-4.463 0.797-5.559 0.58-1.09-0.212-5.383-2.562-6.359-2.948-0.979-0.39-3.133-1.1-3.133-1.1l1.042-10.86z" enable-background="new    " fill="#fff"/>
	<path d="m376.88 246.51l3.98 1.395 1.93 0.939c2.215 1.114 3.844 1.917 4.645 2.072 1.162 0.23 5.27 0.205 6.096-1.537 0.889-1.878 1.615-5.249 1.605-5.302-0.188-1.056-0.672-2.251-2.248-3.375-0.906-0.647-3.469-2.99-6.354-4.424-2.975-1.479-5.658-0.318-5.82-0.364h-1.936l-1.898 10.596zm2.629-11.125c1.352 0.434 4.266 1.534 6.025 2.41 2.738 1.362 6.223 4.256 7.033 4.837 1.217 0.867 0.947 1.148 0.986 1.373 0.053 0.279 0 0.588 0 1.054 0 1.341-0.697 3.302-1.057 3.694-0.613 0.437-3.664 0.918-4.75 0.704-0.539-0.106-2.924-1.407-4.143-2.021l-2.893-1.206c-2.459-0.116-0.926-1.054-1.756-1.347 1.936-5.099 0.363-7.512 0.555-9.498z"/>
</svg>