<?xml version='1.0' encoding='iso-8859-1'?>
<!DOCTYPE svg PUBLIC '-//W3C//DTD SVG 1.1//EN' 'http://www.w3.org/Graphics/SVG/1.1/DTD/svg11.dtd'>
<svg version="1.1" xmlns="http://www.w3.org/2000/svg" viewBox="0 0 477 477" xmlns:xlink="http://www.w3.org/1999/xlink" enable-background="new 0 0 477 477">
  <g>
    <path d="m467,193.024h-11.645c-3.732-15.397-15.872-27.538-31.269-31.27v-9.239c0-5.523-4.478-10-10-10h-158.228v-13.672h9.372c24.081,0 43.672-19.591 43.672-43.672 0-24.081-19.591-43.672-43.672-43.672h-204.7c-24.081,0-43.672,19.591-43.672,43.672 0,24.081 19.591,43.672 43.672,43.672h9.373v13.672h-59.903c-2.939,0-5.73,1.293-7.631,3.537-1.9,2.243-2.717,5.209-2.232,8.109l16.858,101.016c0.291,1.742 2.066,4.615 2.066,4.615l22.636,28.189-20.568,113.127c-1.552,8.535 0.747,17.25 6.306,23.911s13.723,10.48 22.397,10.48h60.838c14.108,0 26.18-10.074 28.703-23.954l12.918-71.049h73.013c12.374,0 23.111-8.384 26.111-20.388l14.145-56.577h148.527c5.522,0 10-4.477 10-10v-9.239c15.397-3.732 27.537-15.872 31.269-31.269h11.644c5.522,0 10-4.477 10-10s-4.478-9.999-10-9.999zm-102.953-30.508l-11.768,44.984h-207.279v-44.984h219.047zm-75.145-77.344c0,13.053-10.619,23.672-23.672,23.672h-9.372v-47.344h9.372c13.053,0 23.672,10.619 23.672,23.672zm-53.044,23.672h-145.955v-47.344h145.955v47.344zm-175.328,0c-13.053,0-23.672-10.62-23.672-23.672s10.62-23.672 23.672-23.672h9.373v47.344h-9.373zm29.373,20h145.955v13.672h-145.955v-13.672zm35.097,33.672v44.984h-95.685l-7.507-44.984h103.192zm-5.305,245.452c-0.793,4.364-4.589,7.532-9.025,7.532h-60.838c-3.734,0-6.016-2.065-7.043-3.295-1.027-1.231-2.65-3.844-1.982-7.519l21.385-117.617c0.519-2.853-0.227-5.79-2.042-8.05l-12.436-15.487h98.243l-26.262,144.436zm79.954-132.468h-35.541l2.176-11.968h33.365v11.968zm32.364,39.759c-0.771,3.084-3.53,5.238-6.709,5.238h-69.376l4.545-24.997h39.177v7.338c0,5.523 4.478,10 10,10s10-4.477 10-10v-39.306h25.295l-12.932,51.727zm172.074-71.727h-368.759l-2.675-16.032h327.347c4.548,0 8.523-3.069 9.675-7.469l15.046-57.515h19.366v81.016zm20-20.395v-40.226c7.383,3.686 12.469,11.315 12.469,20.113s-5.086,16.427-12.469,20.113z"/>
    <path d="m60,195.008h37c5.522,0 10-4.477 10-10s-4.478-10-10-10h-37c-5.522,0-10,4.477-10,10s4.478,10 10,10z"/>
  </g>
</svg>
